<svg width="52" height="26" viewBox="0 0 52 26" xmlns="http://www.w3.org/2000/svg"><g fill-rule="evenodd"><g fill="#29abe2" fill-opacity="0.4"><path d="M10 10c0-2.21-1.79-4-4-4-3.314 0-6-2.686-6-6h2c0 2.21 1.79 4 4 4 3.314 0 6 2.686 6 6 0 2.21 1.79 4 4 4 3.314 0 6 2.686 6 6 0 2.21 1.79 4 4 4v2c-3.314 0-6-2.686-6-6 0-2.21-1.79-4-4-4-3.314 0-6-2.686-6-6zm25.464-1.95l8.486 8.486-1.414 1.414-8.486-8.486 1.414-1.414zM41.95 17.536l8.486-8.486 1.414 1.414-8.486 8.486-1.414-1.414zM31.45 7.036l8.486 8.486-1.414 1.414-8.486-8.486 1.414-1.414zM22.514 15.97l8.486-8.485 1.414 1.414-8.486 8.485-1.414-1.414zM13 0v4h2V0h-2zm20 0v4h2V0h-2zm8 8h4v2h-4V8zm-36 8h4v2h-4v-2z"/></g></g></svg>